<?xml version="1.0" standalone="no"?><!DOCTYPE svg PUBLIC "-//W3C//DTD SVG 1.1//EN" "http://www.w3.org/Graphics/SVG/1.1/DTD/svg11.dtd"><svg t="1583397496583" class="icon" viewBox="0 0 1024 1024" version="1.1" xmlns="http://www.w3.org/2000/svg" p-id="5284" width="32" height="32" xmlns:xlink="http://www.w3.org/1999/xlink"><defs><style type="text/css"></style></defs><path d="M512.922 887.598c-2.171 0-4.342-0.271-6.462-0.809-3.292-0.84-81.413-21.186-160.297-76.549-106.547-74.778-162.867-177.597-162.867-297.324V248.97a26.127 26.127 0 0 1 26.127-26.127c142.295 0 289.157-82.232 290.622-83.062a26.097 26.097 0 0 1 25.984 0.138c1.418 0.82 144.988 82.924 288.543 82.924a26.127 26.127 0 0 1 26.127 26.127v263.946c0 119.015-55.967 221.594-161.843 296.643-78.398 55.573-156.048 76.329-159.31 77.184-2.17 0.573-4.402 0.855-6.624 0.855zM235.55 274.314v238.602c0 102.928 46.889 188.268 139.356 253.666 58.696 41.502 118.425 61.767 137.922 67.691 19.41-6.031 78.756-26.583 137.073-68.234 91.93-65.654 138.547-150.815 138.547-253.123V274.33c-123.54-7.127-237.808-62.116-275.666-82.105-38.328 19.84-154.639 74.89-277.232 82.09z"  p-id="5285"></path><path d="M487.7 644.362a26.045 26.045 0 0 1-18.472-7.649L351.094 518.584a26.127 26.127 0 0 1 36.946-36.95l99.66 99.66 172.652-172.662a26.127 26.127 0 0 1 36.951 36.946L506.179 636.713a26.06 26.06 0 0 1-18.479 7.65z"  p-id="5286"></path></svg>